{"glyphs":{" ":{"ha":347,"x_min":0,"x_max":0,"o":""},"!":{"ha":392,"x_min":0,"x_max":0,"o":"m 186 371 l 0 371 l 0 1111 l 186 1111 m 0 186 l 186 186 l 186 0 l 0 0 "},"&":{"ha":1439,"x_min":0,"x_max":0,"o":"m 493 793 l 381 649 l 1111 649 l 964 463 l 672 92 l 601 0 l 365 0 l 438 92 l 556 243 l 726 463 l 235 463 l 0 463 l 144 649 l 433 1018 l 507 1111 l 742 1111 l 743 1111 l 669 1018 l 639 978 l 1371 978 l 1225 793 "},"+":{"ha":1167,"x_min":0,"x_max":0,"o":"m 463 649 l 463 463 l 0 463 l 0 649 m 1111 649 l 1111 463 l 649 463 l 649 649 m 463 463 l 649 463 l 649 0 l 463 0 m 649 649 l 463 649 l 463 1111 l 649 1111 "},"/":{"ha":1233,"x_min":0,"x_max":0,"o":"m 436 556 l 0 0 l 435 556 m 553 406 l 553 404 l 238 0 m 1104 1111 l 671 556 l 553 404 l 553 406 l 238 0 l 0 0 l 436 556 l 435 556 l 869 1111 "},"A":{"ha":1249,"x_min":0,"x_max":0,"o":"m 369 186 l 275 0 l 69 0 l 625 1111 l 996 369 l 788 369 l 625 696 l 461 369 l 461 369 m 1181 0 l 974 0 l 882 185 l 882 185 l 1088 185 "},"B":{"ha":1124,"x_min":0,"x_max":0,"o":"m 925 788 b 828 556 925 697 893 619 b 925 324 893 493 925 415 b 900 199 925 279 917 238 b 831 96 883 158 860 125 b 726 25 801 65 767 43 b 601 0 688 8 646 0 l 185 0 l 185 186 l 601 186 b 654 196 619 186 638 189 b 700 226 672 203 688 213 b 729 271 713 239 722 254 b 740 324 736 288 740 306 b 729 376 740 342 736 360 b 700 421 722 393 713 408 b 657 451 688 433 674 444 b 601 463 639 458 621 463 l 185 463 l 185 463 l 0 463 l 0 647 l 111 647 l 185 647 l 185 647 l 601 647 b 654 658 619 647 638 650 b 700 689 672 665 688 675 b 729 733 713 701 722 717 b 740 788 736 750 740 768 b 729 840 740 806 736 824 b 700 885 722 857 713 872 b 654 915 688 899 672 908 b 601 925 638 922 619 925 l 185 925 l 0 1111 l 601 1111 b 726 1086 644 1111 686 1103 b 831 1015 767 1068 801 1046 b 900 913 860 986 883 953 b 925 788 917 874 925 832 "},"C":{"ha":1000,"x_min":0,"x_max":0,"o":"m 342 44 b 164 164 274 74 215 114 b 44 342 114 215 74 274 b 0 556 15 410 0 481 b 44 772 0 632 15 704 b 164 947 74 839 114 897 b 342 1067 215 999 274 1038 b 557 1111 408 1096 481 1111 b 772 1068 633 1111 706 1097 b 950 947 839 1039 899 999 l 818 818 b 557 925 744 890 657 925 b 413 897 506 925 457 915 b 294 817 367 878 328 851 b 215 700 261 783 235 744 b 186 556 196 654 186 607 b 215 411 186 504 196 457 b 296 294 235 367 261 328 b 413 214 329 260 368 233 b 557 186 458 196 506 186 l 772 43 b 557 0 706 14 633 0 b 342 44 481 0 408 15 "},"D":{"ha":1153,"x_min":0,"x_max":0,"o":"m 882 769 b 925 556 911 703 925 632 b 882 342 925 479 911 408 b 763 164 851 274 813 215 b 585 44 713 114 653 74 b 369 0 518 15 446 0 l 0 0 l 185 186 l 369 186 b 514 214 421 186 469 196 b 632 294 558 233 599 260 b 711 413 665 329 692 368 b 740 556 731 458 740 506 b 711 699 740 606 731 653 b 631 817 692 743 665 782 b 513 897 597 850 557 878 b 369 925 468 915 419 925 l 185 925 l 0 1111 l 369 1111 b 585 1067 446 1111 517 1096 b 761 947 651 1038 711 997 b 882 769 813 896 851 838 "},"E":{"ha":883,"x_min":0,"x_max":0,"o":"m 185 186 l 740 186 l 740 0 l 0 0 l 0 15 m 740 1111 l 740 925 l 185 925 l 0 1111 m 185 647 l 740 647 l 740 463 l 185 463 l 0 463 l 0 647 "},"F":{"ha":885,"x_min":0,"x_max":0,"o":"m 185 557 l 740 557 l 740 369 l 185 369 l 185 0 l 0 0 l 0 557 m 740 1111 l 740 925 l 185 925 l 0 1111 "},"G":{"ha":1215,"x_min":0,"x_max":0,"o":"m 710 218 b 835 311 757 240 799 271 l 1019 250 b 931 147 994 213 965 178 b 821 68 897 117 861 90 b 694 18 782 46 740 29 b 556 0 650 6 604 0 b 164 164 401 0 272 56 b 0 556 56 272 0 401 b 164 947 0 708 54 839 b 556 1111 271 1057 401 1111 b 772 1068 632 1111 704 1097 b 950 947 839 1039 899 999 l 817 817 b 556 925 744 889 658 925 b 293 817 454 925 367 890 b 186 556 221 744 186 657 b 293 293 186 454 221 365 b 556 186 365 221 454 186 b 710 218 611 186 663 197 m 556 647 l 1019 647 l 835 463 l 556 463 "},"H":{"ha":1138,"x_min":0,"x_max":0,"o":"m 925 1111 l 925 0 l 740 0 l 740 463 l 185 463 l 185 0 l 0 0 l 0 463 l 185 649 l 740 649 l 740 1111 "},"I":{"ha":194,"x_min":0,"x_max":0,"o":"m 185 186 l 0 0 l 0 0 l 0 1111 l 185 928 "},"J":{"ha":854,"x_min":0,"x_max":0,"o":"m 474 157 l 474 157 l 392 239 b 392 239 392 239 392 239 b 447 369 429 275 447 318 l 447 1111 l 635 1111 l 635 369 b 525 107 635 268 597 181 b 525 107 525 107 525 107 l 525 107 m 263 0 l 263 0 l 263 0 m 133 240 b 263 186 169 204 213 186 b 263 186 263 186 263 186 l 263 0 b 0 107 160 0 72 36 l 133 240 m 525 107 l 474 157 l 474 157 "},"K":{"ha":979,"x_min":0,"x_max":0,"o":"m 78 478 l 558 0 l 78 478 m 78 632 l 78 632 l 558 1111 m 264 556 l 819 0 l 558 0 l 78 478 l 78 478 l 0 554 l 78 632 l 78 632 l 558 1111 l 819 1111 "},"L":{"ha":856,"x_min":0,"x_max":0,"o":"m 740 186 l 740 0 l 0 0 l 185 186 m 185 1111 l 185 1081 l 185 438 l 0 251 l 0 1081 l 0 1111 "},"M":{"ha":1325,"x_min":0,"x_max":0,"o":"m 0 1111 l 557 556 l 1113 1111 l 1113 0 l 929 0 l 929 664 l 557 293 l 0 853 "},"N":{"ha":1136,"x_min":0,"x_max":0,"o":"m 924 1111 l 924 3 l 924 1 l 924 0 l 0 831 l 0 1111 l 739 446 l 739 1111 "},"O":{"ha":1340,"x_min":0,"x_max":0,"o":"m 556 1111 b 947 947 710 1111 839 1056 b 1113 556 1057 839 1113 708 b 947 164 1113 401 1057 271 b 556 0 839 56 710 0 b 164 164 401 0 272 56 b 0 556 56 272 0 401 b 164 947 0 708 56 839 b 556 1111 271 1056 401 1111 m 556 925 b 293 817 454 925 367 890 b 186 556 221 744 186 657 b 293 293 186 454 221 365 b 556 186 365 221 454 186 b 817 293 657 186 744 221 b 925 556 890 367 925 454 b 817 817 925 657 889 744 b 556 925 744 889 657 925 "},"P":{"ha":1083,"x_min":0,"x_max":0,"o":"m 817 1003 b 925 740 889 929 925 842 b 817 478 925 639 890 550 b 556 369 744 406 657 369 l 185 369 l 185 0 l 0 0 l 0 556 l 185 556 l 556 556 b 685 610 606 556 649 574 b 740 740 721 646 740 689 b 685 871 740 790 722 835 b 556 925 649 907 606 925 l 185 925 l 0 1111 l 556 1111 b 817 1003 657 1111 744 1075 "},"Q":{"ha":1336,"x_min":0,"x_max":0,"o":"m 556 0 b 161 161 400 0 269 53 b 0 556 51 271 -1 403 b 163 949 1 708 53 840 b 556 1111 271 1058 403 1111 b 949 949 710 1111 840 1058 b 1111 556 1057 840 1111 710 b 1008 232 1111 433 1078 326 l 874 367 b 926 557 908 422 926 486 b 818 818 926 658 889 746 b 556 928 746 889 658 928 b 293 818 453 928 365 889 b 185 557 222 746 185 658 b 293 293 185 453 222 365 b 556 186 365 222 453 186 b 743 236 625 186 688 203 l 878 101 b 556 0 785 33 678 0 "},"R":{"ha":1057,"x_min":0,"x_max":0,"o":"m 792 532 b 629 399 749 469 694 425 l 857 0 l 644 0 l 322 557 l 488 556 b 617 610 538 556 581 574 b 672 742 654 646 672 690 b 617 871 672 792 654 835 b 488 925 581 907 538 925 l 117 925 l 96 946 l 0 1111 l 488 1111 b 749 1003 589 1111 676 1075 b 857 742 821 929 857 843 b 792 532 857 664 836 594 "},"S":{"ha":1115,"x_min":0,"x_max":0,"o":"m 324 463 b 94 557 233 463 157 494 b 0 788 32 621 0 697 b 94 1015 0 876 32 951 b 324 1111 157 1079 233 1111 l 324 925 b 269 915 304 925 286 922 b 224 885 251 908 238 899 b 194 840 211 872 201 857 b 185 788 188 824 185 806 b 224 689 185 749 197 717 b 324 647 251 661 283 647 l 600 647 b 829 553 690 647 767 615 b 925 324 893 489 925 413 b 829 94 925 235 893 158 b 600 0 767 32 690 0 l 600 186 b 654 196 619 186 638 189 b 700 225 672 203 688 213 b 729 269 713 238 722 251 b 740 324 736 286 740 304 b 699 421 740 361 725 393 b 600 463 671 449 639 463 "},"T":{"ha":708,"x_min":0,"x_max":0,"o":"m 556 1111 l 556 925 l 186 925 l 186 0 l 0 0 l 0 925 l 0 1111 "},"U":{"ha":1086,"x_min":0,"x_max":0,"o":"m 925 463 b 789 135 925 335 881 225 b 461 0 699 44 588 0 b 135 135 335 0 225 44 b 0 463 44 225 0 336 l 0 1111 l 185 1111 l 185 463 b 264 268 185 386 211 321 b 461 186 318 213 385 186 b 657 268 538 186 603 214 b 740 463 711 322 740 388 "},"V":{"ha":822,"x_min":0,"x_max":0,"o":"m 207 1111 l 660 207 l 556 0 l 0 1111 "},"W":{"ha":1968,"x_min":0,"x_max":0,"o":"m 557 415 l 453 207 l 0 1111 l 207 1111 m 1810 1111 l 1254 0 l 904 696 l 1008 904 l 1254 415 l 1603 1111 "},"X":{"ha":1276,"x_min":0,"x_max":0,"o":"m 553 706 l 436 556 l 0 1111 l 238 1111 m 436 556 l 553 406 l 238 0 l 0 0 m 671 556 l 553 706 l 869 1111 l 1104 1111 m 671 556 l 1104 0 l 869 0 l 553 406 "},"Y":{"ha":1233,"x_min":0,"x_max":0,"o":"m 553 404 l 553 406 l 238 0 l 0 0 l 436 556 l 0 1111 l 238 1111 l 553 706 l 869 1111 l 1104 1111 l 671 556 m 553 404 l 238 0 l 553 406 "},"Z":{"ha":1175,"x_min":0,"x_max":0,"o":"m 725 925 l 0 925 l 0 1111 l 1104 1111 l 1104 1111 l 725 925 m 1113 186 l 1113 0 l 0 0 l 381 186 l 381 186 "},"[":{"ha":583,"x_min":0,"x_max":0,"o":"m 186 925 l 186 186 l 556 186 l 556 0 l 186 0 l 0 0 l 0 925 l 0 1111 l 556 1111 l 556 925 "},"\\":{"ha":1233,"x_min":0,"x_max":0,"o":"m 436 556 l 0 0 l 435 556 m 553 406 l 553 404 l 238 0 m 1104 1111 l 671 556 l 553 404 l 553 406 l 238 0 l 0 0 l 436 556 l 435 556 l 869 1111 "},"]":{"ha":768,"x_min":0,"x_max":0,"o":"m 0 925 l 0 1111 l 556 1111 l 556 925 l 556 0 l 369 0 l 0 0 l 0 186 l 369 186 l 369 925 "},"~":{"ha":1167,"x_min":0,"x_max":0,"o":"m 1111 649 l 967 463 l 678 93 l 606 0 l 369 0 l 368 0 l 442 93 l 731 463 l 0 463 l 147 649 l 439 1019 l 510 1111 l 746 1111 l 674 1019 l 556 868 l 385 649 l 876 649 "},"†":{"ha":925,"x_min":0,"x_max":0,"o":"m 882 636 l 533 636 l 533 0 l 349 0 l 349 636 l 0 636 l 0 822 l 349 822 l 349 1111 l 533 1111 l 533 822 l 882 822 "},"≠":{"ha":1167,"x_min":0,"x_max":0,"o":"m 1108 1111 l 892 833 l 656 833 l 872 1111 m 367 463 l 221 278 l 456 278 l 556 406 l 556 404 l 601 463 l 1111 463 l 1111 278 l 457 278 l 240 0 l 3 0 l 221 278 l 0 278 l 0 463 l 365 463 m 0 833 l 656 833 l 511 649 l 0 649 m 1111 833 l 1111 649 l 746 649 l 892 833 "}}}
